<svg width="208" height="187" viewBox="0 0 208 187" fill="none" xmlns="http://www.w3.org/2000/svg">
<ellipse cx="103.533" cy="183.458" rx="61.5334" ry="3.45772" fill="#ECEFF1"/>
<path d="M71.6923 37.0033V0H8V149H16.3077V10.3955L46.3151 7.40066L46.448 7.52894L46.5865 7.37599L61.496 5.89586L61.6622 6.05867L61.8394 5.86132L70.0308 5.02752V37.0033H61.1692V40.9503H80V37.0033H71.6923ZM28.8025 2.58037L33.7871 7.15891L23.5077 8.18513L28.8025 2.58037ZM22.0788 7.40066L17.2271 1.48013H27.6726L22.0788 7.40066ZM29.9157 1.48013H40.1231L35.2049 6.3103L29.9157 1.48013ZM70.0308 2.10179V3.53752L68.7348 3.66579L70.0308 2.10179ZM67.2948 2.91586L65.8049 1.48013H68.48L67.2948 2.91586ZM63.6172 1.48013L61.5735 3.76447L59.2308 1.48013H63.6172ZM57.0431 1.48013L54.5785 4.23811L51.8757 1.48013H57.0431ZM49.7102 1.48013L46.3428 5.25941L42.3717 1.48013H49.7102ZM16.3077 2.86652L20.8991 8.44662L16.3077 8.90547V2.86652ZM36.8886 6.84808L41.2308 2.5705L44.8862 6.04881L36.8886 6.84808ZM50.8012 2.63463L53.3268 5.20513L48.0431 5.73305L50.8012 2.63463ZM56.0849 4.93377L58.1508 2.62477L60.1114 4.53414L56.0849 4.93377ZM64.7249 2.61983L66.0874 3.94702L63.3182 4.22331L64.7249 2.61983Z" fill="#ECEFF1"/>
<path d="M53.2805 64.3482H43.0115V59.4281H41.5445V64.3482H31.7646V55H29.8086V157.831H55.2365V57.9521H53.2805V64.3482ZM41.5445 72.2204H31.7646V66.8083H41.5445V72.2204ZM53.2805 72.2204H43.0115V66.8083H53.2805V72.2204Z" fill="#ECEFF1"/>
<path d="M204 162V137.945H201.863V126.482H198.733V86.6293H194.21V81.4855L184.562 77.1551V71.9737H183.222V86.6293H181.35V126.482H179.482V105.526H174.401V94.7259H172.983V126.482H169.125V114.398H166.582V111.309H160.699V100.768H157.477V93.3107H153.516V82.4494H152.103V93.3107H148.142V100.768H144.919V111.309H139.037V114.398H136.499V126.482H133.487V111.309H127.604V78.6597H125.731V75.0581H113.164V78.6597H110.489V102.315H99.7897V104.628H95.78V106.429V112.829V115.682H88.5623V84.8285H86.1516V78.2695H80.9389V55H79.467V78.2695H75.7262V84.8285H53.7751V82.6704H52.4401V97.3261H50.5672V97.5847H49.4425V112.24H47.5697V116.223H43.6137V105.427H42.1956V131.137H40.621V120.337H39.2029V137.179H38.3374V125.095H35.7995V122.011H29.9169V111.469H26.6944V104.012H22.7335V93.1461H21.3203V104.012H17.3594V111.469H14.1369V122.011H8.25428V125.095H5.71638V136.925H5.25672V137.179H4V162H204Z" fill="#ECEFF1"/>
<path d="M1 162H75" stroke="#E0E3E6" stroke-width="0.5" stroke-linecap="round"/>
<path d="M95 162H207" stroke="#E0E3E6" stroke-width="0.5" stroke-linecap="round"/>
<path d="M80 162H89" stroke="#E0E3E6" stroke-width="0.5" stroke-linecap="round"/>
<path d="M151.701 84.1542C142.393 65.8799 126.53 55.2934 114.345 61.4939L63.7267 87.267C50.3644 94.1295 48.9028 114.083 57.9659 131.875C67.2738 150.157 84.6932 159.949 96.8789 153.741L146.836 128.258C158.083 121.466 160.724 101.89 151.694 84.1535L151.701 84.1542Z" fill="#F4F7F9" stroke="#1E62A1" stroke-width="1.3" stroke-miterlimit="10"/>
<path d="M95.2061 150.459C86.1893 155.052 73.998 149.92 65.2981 138.809C75.7802 134.482 80.949 118.619 76.9052 101.821C75.7866 97.1777 74.0748 92.9148 71.9374 89.2006C81.832 89.1291 93.1958 97.4013 99.8942 110.557C108.271 127.018 106.172 144.879 95.2061 150.459Z" fill="#DBC765"/>
<path d="M65.298 138.809C63.3981 136.4 61.6772 133.711 60.1848 130.783C51.8076 114.322 53.9072 96.461 64.8729 90.8805C67.0714 89.7558 69.4602 89.2142 71.9372 89.2005C74.0746 92.9146 75.7865 97.1775 76.9051 101.821C80.9488 118.619 75.7801 134.482 65.298 138.809Z" fill="#EEE4B0"/>
<path d="M144.409 129.537C155.655 122.745 158.297 103.169 149.267 85.4327C139.959 67.1508 124.103 56.5651 111.918 62.7655" stroke="#1E62A1" stroke-width="1.3" stroke-miterlimit="10"/>
<path d="M102.092 109.44C92.7899 91.1739 75.3767 81.3982 63.1993 87.5994C51.0144 93.7999 48.6775 113.633 57.9793 131.899C67.281 150.165 84.6943 159.941 96.8716 153.74C109.057 147.539 111.393 127.706 102.092 109.44ZM95.2058 150.459C84.2401 156.04 68.5633 147.228 60.1854 130.775C51.8067 114.33 53.907 96.4611 64.8727 90.8806C75.8384 85.3001 91.5228 94.1124 99.8931 110.565C108.271 127.018 106.171 144.879 95.2051 150.467L95.2058 150.459Z" fill="#83ABDE" stroke="#1E62A1" stroke-width="1.3"/>
<path d="M124.009 120.221C125.477 120.039 126.486 118.428 126.262 116.622C126.039 114.817 124.668 113.5 123.2 113.682C121.732 113.863 120.723 115.475 120.947 117.28C121.17 119.086 122.541 120.402 124.009 120.221Z" fill="#04447F"/>
<path d="M123.607 116.948C125.763 110.203 125.957 102.961 125.433 95.9513C124.909 88.9412 124.054 81.3118 121.237 74.7147C118.903 69.2553 115.128 63.6844 110.241 60.2031C105.225 56.6258 99.0362 55.6365 93.0148 56.3746C88.6167 56.9123 84.2897 58.3279 80.5893 60.8104C74.4183 64.9578 70.8017 72.1171 68.6281 79.044C67.9856 81.1008 67.4978 83.3019 67.4112 84.4782" stroke="#1E62A1" stroke-width="2.5" stroke-miterlimit="10" stroke-linecap="round"/>
<path d="M101.85 144.003C100.93 145.598 99.7777 147.057 98.3953 148.281C97.8369 148.779 97.2364 149.319 96.5894 149.702C96.2093 149.926 95.7604 150.152 95.3837 150.423C94.9421 150.733 94.6517 151.226 94.2047 151.513C93.6529 151.858 93.0586 152.086 92.4328 152.241C91.5258 152.463 90.605 152.667 89.6817 152.818C89.1772 152.901 88.6899 153.047 88.2128 153.247C87.5764 153.516 87.1359 153.979 86.4784 153.49C86.0143 153.141 85.799 152.663 85.9057 152.092C86.1058 151.01 87.237 150.023 88.1818 149.561C89.3665 148.983 90.7626 147.904 92 147.5C95.437 146.368 97.9999 143 101.85 144.003Z" fill="#1E62A1"/>
<path d="M89.1121 183.41L89.0794 183.409C88.6797 183.398 88.4072 183.416 88.0981 183.439C88.0836 183.44 88.069 183.441 88.0544 183.442C87.7488 183.465 87.404 183.49 86.9001 183.491C86.6641 183.491 86.4837 183.501 86.3464 183.521C86.3304 183.523 86.3154 183.525 86.3012 183.528C86.5389 183.612 86.8874 183.679 87.3165 183.728C88.0934 183.817 88.9845 183.831 89.648 183.841C89.7679 183.843 89.8804 183.845 89.9834 183.847L89.1121 183.41ZM89.1121 183.41L89.1447 183.408M89.1121 183.41L89.1447 183.408M89.1447 183.408C89.7547 183.363 90.4677 183.377 91.2404 183.392C91.6555 183.401 92.0878 183.409 92.5306 183.409C92.9504 183.409 93.3231 183.373 93.6056 183.345M89.1447 183.408L93.6056 183.345M93.6056 183.345C93.6858 183.337 93.7587 183.33 93.8234 183.324M93.6056 183.345L93.8234 183.324M93.8234 183.324C93.9379 183.314 94.0202 183.311 94.0786 183.312M93.8234 183.324L94.0786 183.312M94.0786 183.312L94.1001 183.358C94.1026 183.373 94.1026 183.383 94.1022 183.388C94.0978 183.395 94.0797 183.42 94.0248 183.457C93.8573 183.571 93.5305 183.68 93.0377 183.754C92.131 183.89 90.9879 183.867 90.1374 183.85C90.085 183.849 90.0337 183.848 89.9836 183.847L94.0786 183.312ZM86.0787 183.421C86.0795 183.421 86.0846 183.424 86.0916 183.432C86.0814 183.425 86.0779 183.421 86.0787 183.421Z" fill="#1E62A1" stroke="#1E62A1" stroke-width="1.3"/>
<path d="M78.2542 180.552L78.2029 180.549C77.8274 180.533 77.4254 180.561 76.9664 180.596C76.9306 180.599 76.8945 180.602 76.858 180.604C76.4387 180.637 75.9775 180.673 75.5016 180.674C75.2879 180.674 75.1201 180.691 74.9933 180.72C74.8652 180.748 74.8039 180.783 74.78 180.801C74.7664 180.811 74.7656 180.814 74.7637 180.82C74.7636 180.821 74.7634 180.821 74.7632 180.822C74.7579 180.84 74.7448 180.905 74.7728 181.046C74.8078 181.22 74.9049 181.356 75.1073 181.481C75.3274 181.616 75.6478 181.718 76.0549 181.784C76.6639 181.884 77.3126 181.888 77.8926 181.891C78.1061 181.892 78.3103 181.893 78.4997 181.899L78.2542 180.552ZM78.2542 180.552L78.3052 180.546M78.2542 180.552L78.3052 180.546M78.3052 180.546C78.655 180.505 78.9778 180.447 79.2735 180.393C79.392 180.372 79.5061 180.351 79.616 180.333C80.0117 180.266 80.4221 180.214 80.9605 180.214C81.4643 180.214 81.8108 180.215 82.0788 180.25M78.3052 180.546L82.0788 180.25M82.0788 180.25C82.2073 180.267 82.2944 180.289 82.3548 180.312M82.0788 180.25L82.3548 180.312M82.3548 180.312L82.4463 180.62C82.4861 180.954 82.394 181.141 82.2612 181.279C82.0928 181.453 81.795 181.608 81.3537 181.72C80.4698 181.945 79.3306 181.925 78.5 181.899L82.3548 180.312Z" fill="#1E62A1" stroke="#1E62A1" stroke-width="1.3"/>
<path d="M87.6863 156.809C87.6949 157.103 87.7053 157.479 87.7101 157.918C88.0304 161.989 90.5608 169.187 88.7874 170.779C88.017 171.47 84.0892 171.916 86.1879 167.393C87.6008 164.347 87.7353 160.248 87.7101 157.918C87.6784 157.515 87.6683 157.142 87.6863 156.809Z" fill="#1E62A1" stroke="#1E62A1" stroke-width="1.3"/>
</svg>
