<svg width="418" height="341" viewBox="0 0 418 341" fill="none" xmlns="http://www.w3.org/2000/svg">
<path fill-rule="evenodd" clip-rule="evenodd" d="M108.2 340.703C154.15 340.703 191.4 303.319 191.4 257.203C191.4 248.993 190.219 241.059 188.019 233.563C202.025 227.785 222.625 224.598 245.811 234.151C243.72 241.473 242.6 249.207 242.6 257.203C242.6 303.319 279.85 340.703 325.8 340.703C371.75 340.703 409 303.319 409 257.203C409 211.088 371.75 173.703 325.8 173.703C296.24 173.703 270.28 189.175 255.522 212.49C225.168 199.669 197.498 203.843 178.185 212.031C163.378 188.972 137.566 173.703 108.2 173.703C62.2499 173.703 25 211.088 25 257.203C25 303.319 62.2499 340.703 108.2 340.703ZM108.2 316.987C141.099 316.987 167.769 290.221 167.769 257.203C167.769 224.186 141.099 197.419 108.2 197.419C75.3008 197.419 48.6308 224.186 48.6308 257.203C48.6308 290.221 75.3008 316.987 108.2 316.987ZM325.8 316.987C358.699 316.987 385.369 290.221 385.369 257.203C385.369 224.186 358.699 197.419 325.8 197.419C292.901 197.419 266.231 224.186 266.231 257.203C266.231 290.221 292.901 316.987 325.8 316.987Z" fill="black"/>
<path fill-rule="evenodd" clip-rule="evenodd" d="M341.38 108.88L312.482 17.6585C308.126 3.90938 293.29 -3.21633 279.982 1.52181C225.805 20.8107 161.249 9.75772 134.888 1.24653C120.74 -3.32134 106.739 5.19064 102.952 18.206L76.4058 109.451C75.3959 112.922 75.1636 116.393 75.5886 119.703H12C5.37258 119.703 0 125.076 0 131.703C0 138.331 5.37258 143.703 12 143.703H406C412.627 143.703 418 138.331 418 131.703C418 125.076 412.627 119.703 406 119.703H342.372C342.822 116.208 342.538 112.536 341.38 108.88ZM99.4504 116.156L125.997 24.9105C126.189 24.2515 126.861 23.8747 127.514 24.0856C156.46 33.4314 226.908 45.8938 288.032 24.1315C288.68 23.9007 289.394 24.2506 289.602 24.9068L318.501 116.128C318.748 116.908 318.166 117.703 317.347 117.703H100.612C99.8058 117.703 99.2251 116.93 99.4504 116.156Z" fill="black"/>
</svg>
