<svg width="454" height="331" viewBox="0 0 454 331" fill="none" xmlns="http://www.w3.org/2000/svg">
<path d="M201.957 246.66C201.957 292.764 164.582 330.138 118.478 330.138C72.3745 330.138 35 292.764 35 246.66C35 200.556 72.3745 163.182 118.478 163.182C149.199 163.182 176.045 179.777 190.539 204.491C197.255 201.419 204.574 198.985 212.404 197.552C228.398 194.624 245.855 195.995 263.863 203.815C278.447 179.474 305.082 163.182 335.522 163.182C381.626 163.182 419 200.556 419 246.66C419 292.764 381.626 330.138 335.522 330.138C289.418 330.138 252.044 292.764 252.044 246.66C252.044 239.517 252.941 232.583 254.629 225.966C240.559 219.792 227.742 219.143 216.726 221.159C210.617 222.278 204.861 224.255 199.571 226.764C201.13 233.14 201.957 239.804 201.957 246.66Z" fill="black"/>
<path d="M353.73 108.703L306.299 0.703461H155.158L101.016 108.703H12C5.37258 108.703 0 114.076 0 120.703C0 127.331 5.37258 132.703 12 132.703H442C448.627 132.703 454 127.331 454 120.703C454 114.076 448.627 108.703 442 108.703H353.73Z" fill="black"/>
</svg>
