<svg width="43" height="36" viewBox="0 0 43 36" fill="none" xmlns="http://www.w3.org/2000/svg">
<path fill-rule="evenodd" clip-rule="evenodd" d="M35.0921 24.1726C35.3932 24.0034 35.58 23.6853 35.5811 23.3399L35.6023 16.8094C35.6034 16.4641 35.7901 16.146 36.0912 15.9767L39.9562 13.8035C40.5954 13.4441 41.3851 13.906 41.3851 14.6393V26.5741C41.3851 26.9206 41.1981 27.2401 40.8961 27.4099L27.4009 34.9967C27.1096 35.1604 26.7541 35.1608 26.4626 34.9975L15.8357 29.0481C15.5328 28.8785 15.3452 28.5585 15.3452 28.2114V22.2896C15.3452 22.2823 15.3529 22.2777 15.3593 22.2812C15.3656 22.2847 15.3733 22.2801 15.3733 22.2729V22.2668C15.3733 22.2621 15.3759 22.2577 15.38 22.2554L23.9941 17.4116C24.0019 17.4073 23.9988 17.3955 23.9899 17.3955C23.9851 17.3955 23.9813 17.3916 23.9813 17.3868L23.9989 11.39C24.0011 10.6549 23.2093 10.1908 22.569 10.5519L15.8162 14.3597C15.5238 14.5246 15.1666 14.5246 14.8742 14.3597L8.103 10.5415C7.46379 10.181 6.67312 10.6429 6.67312 11.3767V22.2637C6.67312 22.9961 5.88528 23.4581 5.2461 23.1006L1.34784 20.92C1.04426 20.7502 0.856455 20.4293 0.857062 20.0815L0.88925 1.63583C0.890529 0.903289 1.6795 0.44266 2.31805 0.801645L14.8753 7.86112C15.1671 8.02517 15.5233 8.02517 15.8151 7.86112L28.3695 0.803249C29.0087 0.443901 29.7983 0.905826 29.7983 1.63911V20.0891C29.7983 20.4352 29.6117 20.7545 29.3102 20.9244L22.6281 24.6905C21.9755 25.0583 21.9778 25.9989 22.6322 26.3635L26.4632 28.498C26.7545 28.6603 27.1091 28.6596 27.3998 28.4963L35.0921 24.1726ZM35.756 8.24184C35.756 8.98315 36.5613 9.44409 37.2005 9.0687L40.9118 6.88927C41.205 6.71707 41.3851 6.40246 41.3851 6.06241V1.67512C41.3851 0.933813 40.5798 0.472874 39.9406 0.848266L36.2294 3.0277C35.9361 3.19989 35.756 3.51451 35.756 3.85456V8.24184Z" fill="#007FFF"/>
</svg>
