<svg width="161" height="35" viewBox="0 0 161 35" fill="none" xmlns="http://www.w3.org/2000/svg">
<path d="M10.3648 34.6921L20.1445 24.3851L14.2281 11.8183L0.843628 11.8541L10.3648 34.6921Z" fill="#0C4271"/>
<path d="M0.786011 10.8852H31.6431L40.3665 0.566345L8.73752 0.657897L0.786011 10.8852Z" fill="#3872A9"/>
<path d="M52.078 23.9097L41.6477 0.592285L32.3016 11.5418L38.1504 23.9057L52.078 23.9097Z" fill="#2063A0"/>
<path d="M20.9501 24.8447L11.6617 34.6921L44.2556 34.6941L52.0778 24.8447H20.9501Z" fill="#4E91C3"/>
<path d="M69.4273 11.4761C68.7827 11.2931 68.1023 11.0624 67.3842 10.7858C66.666 10.5093 66.0016 10.1612 65.3928 9.74142C64.7821 9.32166 64.2768 8.8104 63.8749 8.20563C63.4731 7.60285 63.2721 6.87475 63.2721 6.0233C63.2721 5.17185 63.4651 4.39599 63.8491 3.72955C64.235 3.06311 64.7343 2.50211 65.3491 2.04854C65.9638 1.59496 66.6461 1.24877 67.3921 1.01403C68.1401 0.77928 68.8762 0.659912 69.6003 0.659912C70.2668 0.659912 70.9054 0.729548 71.5141 0.866814C72.1229 1.00408 72.6898 1.209 73.213 1.47956C73.7362 1.75011 74.2097 2.08433 74.6354 2.48022C75.0612 2.8761 75.4232 3.33363 75.7216 3.85087C75.7893 3.96625 75.8072 4.08163 75.7733 4.19503C75.7375 4.31041 75.6798 4.39596 75.6003 4.45366C75.5068 4.53323 75.3954 4.57703 75.2641 4.58299C75.1328 4.58896 75.0035 4.53524 74.8762 4.41985C74.532 3.92649 74.158 3.50871 73.7541 3.16853C73.3523 2.83034 72.9226 2.55583 72.469 2.34893C72.0154 2.14204 71.5459 1.99479 71.0625 1.90924C70.5791 1.8237 70.0897 1.77995 69.5964 1.77995C69.0552 1.77995 68.4803 1.86351 67.8716 2.03062C67.2608 2.19772 66.6978 2.45632 66.1806 2.80645C65.6634 3.15658 65.2337 3.59626 64.8955 4.12543C64.5553 4.6546 64.3862 5.28124 64.3862 6.00537C64.3742 6.48879 64.4618 6.92049 64.6448 7.29847C64.8278 7.67844 65.0666 8.01465 65.361 8.30709C65.6534 8.59953 65.9896 8.85613 66.3696 9.07496C66.7496 9.29379 67.1375 9.4828 67.5334 9.64394C67.9293 9.80508 68.3172 9.9463 68.6972 10.0657C69.0771 10.187 69.4153 10.2925 69.7157 10.384C70.601 10.6943 71.4604 11.0246 72.2939 11.3767C73.1275 11.7268 73.8695 12.1406 74.5201 12.618C75.1706 13.0955 75.6898 13.6625 76.0817 14.317C76.4716 14.9735 76.6686 15.7553 76.6686 16.6624C76.6686 17.675 76.4696 18.5822 76.0737 19.3879C75.6779 20.1936 75.1507 20.8739 74.4942 21.433C73.8397 21.99 73.0877 22.4157 72.2442 22.7101C71.3987 23.0026 70.5274 23.1498 69.6302 23.1498C68.8483 23.1498 68.0884 23.0443 67.3543 22.8315C66.6183 22.6186 65.9399 22.3282 65.3192 21.9601C64.6985 21.5921 64.1554 21.1545 63.6899 20.6492C63.2244 20.1439 62.8703 19.5968 62.6296 19.0099C62.5381 18.815 62.5241 18.6538 62.5858 18.5265C62.6495 18.4011 62.743 18.3077 62.8703 18.25C63.1468 18.1246 63.3995 18.2221 63.6302 18.5424C63.8491 19.0596 64.1654 19.5351 64.5792 19.9648C64.993 20.3965 65.4704 20.7645 66.0115 21.0689C66.5526 21.3733 67.1375 21.61 67.7701 21.7771C68.4027 21.9442 69.0473 22.0278 69.7018 22.0278C70.4021 22.0278 71.1023 21.9164 71.7966 21.6916C72.4929 21.4668 73.1195 21.1306 73.6766 20.683C74.2336 20.2353 74.6852 19.6744 75.0313 19.0019C75.3755 18.3295 75.5485 17.5497 75.5485 16.6644C75.5485 15.9164 75.3735 15.2758 75.0234 14.7407C74.6732 14.2055 74.2097 13.744 73.6348 13.3521C73.0598 12.9622 72.4073 12.618 71.6772 12.3256C70.9471 12.0332 70.1972 11.7467 69.4253 11.4722L69.4273 11.4761Z" fill="#35475A" stroke="#35475A" stroke-width="0.0497343" stroke-miterlimit="10"/>
<path d="M84.1605 22.378C84.1605 22.5391 84.1049 22.6704 83.9974 22.7739C83.888 22.8773 83.7527 22.929 83.5916 22.929C83.4424 22.929 83.3131 22.8773 83.2037 22.7739C83.0943 22.6704 83.0405 22.5391 83.0405 22.378V1.40207C83.0405 1.24093 83.0943 1.10964 83.2037 1.00619C83.3131 0.902743 83.4424 0.851013 83.5916 0.851013C83.7527 0.851013 83.888 0.902743 83.9974 1.00619C84.1068 1.10964 84.1605 1.24292 84.1605 1.40207V22.378Z" fill="#35475A" stroke="#35475A" stroke-width="0.0497343" stroke-miterlimit="10"/>
<path d="M92.7605 3.093V22.3779C92.7605 22.5391 92.7048 22.6704 92.5974 22.7738C92.488 22.8773 92.3527 22.929 92.1916 22.929C92.0424 22.929 91.9131 22.8773 91.8036 22.7738C91.6942 22.6704 91.6405 22.5391 91.6405 22.3779V1.41991C91.6405 1.25877 91.6942 1.12747 91.8036 1.02402C91.9131 0.920578 92.0424 0.868848 92.1916 0.868848C92.2373 0.868848 92.295 0.880817 92.3646 0.902701C92.3865 0.902701 92.4044 0.908638 92.4164 0.920574L92.5019 0.972299C92.5715 1.01805 92.6232 1.05786 92.6571 1.09367L106.199 20.6551V1.4219C106.199 1.26076 106.252 1.12548 106.362 1.01606C106.471 0.906644 106.607 0.852966 106.768 0.852966C106.929 0.852966 107.06 0.908634 107.164 1.01606C107.267 1.12548 107.319 1.26076 107.319 1.4219V22.3799C107.319 22.5411 107.263 22.6724 107.156 22.7758C107.046 22.8793 106.917 22.931 106.768 22.931H106.716C106.601 22.931 106.491 22.8912 106.388 22.8096C106.342 22.7639 106.312 22.73 106.302 22.7062L92.7605 3.093Z" fill="#35475A" stroke="#35475A" stroke-width="0.0497343" stroke-miterlimit="10"/>
<path d="M132.938 4.04187C133.053 4.15726 133.111 4.2866 133.111 4.42984C133.111 4.57307 133.053 4.70237 132.938 4.81776C132.835 4.93314 132.703 4.99081 132.542 4.99081C132.381 4.99081 132.25 4.93314 132.146 4.81776C131.134 3.80517 130.01 3.04918 128.774 2.54984C127.539 2.05051 126.27 1.7999 124.971 1.7999C124.04 1.7999 123.138 1.92121 122.271 2.16193C121.404 2.40264 120.594 2.74285 119.848 3.18051C119.1 3.61817 118.422 4.14734 117.813 4.76802C117.204 5.38871 116.681 6.07306 116.243 6.82107C115.806 7.56907 115.469 8.37275 115.235 9.23614C114.998 10.0995 114.881 10.9948 114.881 11.9278C114.881 12.8608 114.996 13.7122 115.225 14.5577C115.455 15.4032 115.782 16.1989 116.207 16.9469C116.633 17.6949 117.148 18.3793 117.751 19C118.356 19.6207 119.03 20.1558 119.778 20.6034C120.526 21.051 121.334 21.4031 122.201 21.6558C123.069 21.9084 123.986 22.0358 124.953 22.0358C126.264 22.0358 127.531 21.803 128.756 21.3375C129.982 20.872 131.1 20.1339 132.112 19.1213C132.238 18.996 132.377 18.9323 132.526 18.9323C132.675 18.9323 132.803 18.9841 132.906 19.0875C133.022 19.191 133.075 19.3223 133.069 19.4834C133.063 19.6445 133.01 19.7758 132.906 19.8793C131.79 21.0072 130.549 21.8348 129.18 22.364C127.811 22.8932 126.403 23.1578 124.955 23.1578C123.92 23.1578 122.922 23.0225 121.963 22.7519C121.002 22.4814 120.109 22.1054 119.281 21.622C118.453 21.1385 117.699 20.5557 117.021 19.8713C116.343 19.187 115.762 18.429 115.278 17.5955C114.795 16.7619 114.421 15.8687 114.156 14.9138C113.892 13.9589 113.76 12.9642 113.76 11.9298C113.76 10.8953 113.888 9.97818 114.14 9.04119C114.393 8.10419 114.753 7.2189 115.219 6.38536C115.684 5.55181 116.251 4.78395 116.918 4.0817C117.584 3.37945 118.334 2.77665 119.17 2.27135C120.003 1.76605 120.908 1.37217 121.887 1.08968C122.864 0.807187 123.9 0.667908 124.992 0.667908C126.441 0.667908 127.849 0.952396 129.218 1.52136C130.587 2.09032 131.828 2.9338 132.944 4.04785L132.938 4.04187Z" fill="#35475A" stroke="#35475A" stroke-width="0.0497343" stroke-miterlimit="10"/>
<path d="M149.303 0.695862C150.337 0.695862 151.332 0.827158 152.287 1.09174C153.242 1.35633 154.135 1.73231 154.968 2.22169C155.802 2.71108 156.562 3.29397 157.244 3.97235C157.929 4.65072 158.515 5.40667 159.003 6.24021C159.492 7.07376 159.87 7.96897 160.141 8.92188C160.411 9.87678 160.547 10.8715 160.547 11.9059C160.547 12.9404 160.411 13.9391 160.141 14.898C159.87 15.8588 159.49 16.752 159.003 17.5796C158.513 18.4072 157.927 19.1671 157.244 19.8574C156.56 20.5478 155.802 21.1346 154.968 21.6161C154.135 22.0995 153.24 22.4755 152.287 22.746C151.332 23.0166 150.337 23.1519 149.303 23.1519C147.739 23.1519 146.275 22.8594 144.912 22.2726C143.549 21.6857 142.362 20.884 141.351 19.8654C140.339 18.8469 139.543 17.6552 138.962 16.2865C138.381 14.9178 138.091 13.4576 138.091 11.9059C138.091 10.3542 138.381 8.89602 138.962 7.5333C139.543 6.17058 140.339 4.98295 141.351 3.97235C142.362 2.95976 143.551 2.16201 144.912 1.57515C146.275 0.988284 147.739 0.695862 149.303 0.695862ZM149.303 1.81585C147.9 1.81585 146.585 2.08044 145.362 2.60961C144.136 3.13878 143.068 3.85696 142.153 4.76611C141.238 5.67525 140.52 6.74352 139.996 7.97494C139.473 9.20636 139.211 10.5174 139.211 11.9079C139.211 13.2985 139.471 14.6274 139.996 15.8588C140.52 17.0903 141.238 18.1625 142.153 19.0756C143.068 19.9907 144.136 20.7109 145.362 21.2401C146.587 21.7693 147.9 22.0339 149.303 22.0339C150.705 22.0339 152.004 21.7693 153.236 21.2401C154.465 20.7109 155.537 19.9888 156.452 19.0756C157.368 18.1605 158.088 17.0883 158.617 15.8588C159.146 14.6294 159.411 13.3124 159.411 11.9079C159.411 10.5034 159.146 9.20636 158.617 7.97494C158.088 6.74551 157.366 5.67525 156.452 4.76611C155.537 3.85696 154.465 3.13878 153.236 2.60961C152.004 2.08044 150.693 1.81585 149.303 1.81585Z" fill="#35475A" stroke="#35475A" stroke-width="0.0497343" stroke-miterlimit="10"/>
<path d="M140.933 34.6842C140.877 34.6802 140.834 34.6584 140.802 34.6166C140.77 34.5748 140.754 34.5271 140.754 34.4714V27.2599C140.754 27.2002 140.774 27.1544 140.816 27.1206C140.858 27.0868 140.905 27.0709 140.961 27.0709H144.542C144.598 27.0709 144.643 27.0888 144.679 27.1246C144.715 27.1604 144.733 27.2062 144.733 27.2619C144.733 27.3176 144.715 27.3633 144.679 27.4011C144.643 27.4389 144.598 27.4568 144.542 27.4568H141.138V30.6876H143.684C143.74 30.6876 143.786 30.7055 143.824 30.7413C143.862 30.7771 143.879 30.8228 143.879 30.8785C143.879 30.9342 143.86 30.978 143.824 31.0118C143.786 31.0456 143.74 31.0635 143.684 31.0635H141.138V34.3003H144.542C144.598 34.3003 144.643 34.3182 144.679 34.354C144.715 34.3898 144.733 34.4335 144.733 34.4853C144.733 34.5449 144.715 34.5927 144.679 34.6305C144.643 34.6683 144.598 34.6862 144.542 34.6862H140.931L140.933 34.6842Z" fill="#35475A" stroke="#35475A" stroke-width="0.149203" stroke-miterlimit="10"/>
<path d="M151.704 29.1816C151.704 29.4761 151.652 29.7446 151.548 29.9913C151.445 30.238 151.302 30.4509 151.121 30.6339C150.938 30.8169 150.723 30.9641 150.472 31.0735C150.222 31.1849 149.953 31.2506 149.662 31.2705L151.668 34.3938C151.7 34.4535 151.706 34.5092 151.686 34.5629C151.666 34.6166 151.628 34.6524 151.572 34.6723C151.525 34.6922 151.479 34.6922 151.433 34.6763C151.387 34.6584 151.351 34.6285 151.324 34.5848L149.223 31.2765H147.681V34.4952C147.681 34.5509 147.661 34.5967 147.625 34.6325C147.588 34.6683 147.542 34.6862 147.486 34.6862C147.434 34.6862 147.391 34.6683 147.353 34.6325C147.315 34.5967 147.297 34.5509 147.297 34.4952V27.2599C147.297 27.2042 147.317 27.1584 147.353 27.1226C147.389 27.0868 147.434 27.0689 147.486 27.0689H149.491C149.8 27.0689 150.09 27.1206 150.361 27.2261C150.631 27.3315 150.866 27.4787 151.067 27.6657C151.268 27.8547 151.423 28.0775 151.536 28.3362C151.65 28.5948 151.706 28.8753 151.706 29.1816H151.704ZM147.681 27.4509V30.8965H149.501C149.768 30.8965 150.011 30.8507 150.233 30.7592C150.456 30.6677 150.647 30.5424 150.808 30.3852C150.97 30.2261 151.095 30.043 151.182 29.8342C151.272 29.6253 151.316 29.4044 151.316 29.1717C151.316 28.9389 151.27 28.7042 151.178 28.4933C151.087 28.2825 150.96 28.1014 150.798 27.9463C150.635 27.7911 150.442 27.6697 150.218 27.5842C149.993 27.4966 149.748 27.4529 149.483 27.4529H147.681V27.4509Z" fill="#35475A" stroke="#35475A" stroke-width="0.149203" stroke-miterlimit="10"/>
<path d="M154.743 31.2765V34.4952C154.743 34.5509 154.724 34.5967 154.688 34.6325C154.65 34.6683 154.604 34.6862 154.549 34.6862C154.497 34.6862 154.453 34.6683 154.415 34.6325C154.377 34.5967 154.359 34.5509 154.359 34.4952V27.2599C154.359 27.2042 154.379 27.1584 154.415 27.1226C154.451 27.0868 154.497 27.0689 154.549 27.0689H156.554C156.862 27.0689 157.153 27.1206 157.423 27.2261C157.694 27.3315 157.928 27.4787 158.129 27.6657C158.33 27.8547 158.485 28.0775 158.599 28.3362C158.712 28.5948 158.768 28.8753 158.768 29.1816C158.768 29.488 158.712 29.7685 158.599 30.0231C158.485 30.2798 158.328 30.5006 158.129 30.6856C157.928 30.8726 157.694 31.0178 157.423 31.1193C157.153 31.2227 156.864 31.2745 156.554 31.2745H154.745L154.743 31.2765ZM154.743 27.4509V30.8965H156.564C156.83 30.8965 157.073 30.8507 157.296 30.7592C157.519 30.6677 157.71 30.5424 157.871 30.3852C158.032 30.2261 158.157 30.043 158.245 29.8342C158.334 29.6253 158.378 29.4044 158.378 29.1717C158.378 28.9389 158.332 28.7042 158.241 28.4933C158.149 28.2825 158.022 28.1014 157.861 27.9463C157.698 27.7911 157.505 27.6697 157.28 27.5842C157.055 27.4966 156.81 27.4529 156.546 27.4529H154.743V27.4509Z" fill="#35475A" stroke="#35475A" stroke-width="0.149203" stroke-miterlimit="10"/>
</svg>
