<svg width="24" height="36" viewBox="0 0 24 36" fill="none" xmlns="http://www.w3.org/2000/svg">
<path d="M6.39349 35.074C9.57022 35.074 12.1484 32.4413 12.1484 29.1973V23.3206H6.39349C3.21676 23.3206 0.63855 25.9534 0.63855 29.1973C0.63855 32.4413 3.21676 35.074 6.39349 35.074Z" fill="#0ACF83"/>
<path d="M0.63855 17.8214C0.63855 14.5775 3.21676 11.9447 6.39349 11.9447H12.1484V23.6981H6.39349C3.21676 23.6981 0.63855 21.0654 0.63855 17.8214Z" fill="#A259FF"/>
<path d="M0.63916 5.87672C0.63916 2.63277 3.21737 0 6.3941 0H12.149V11.7534H6.3941C3.21737 11.7534 0.63916 9.12067 0.63916 5.87672Z" fill="#F24E1E"/>
<path d="M12.0144 0H17.7693C20.9461 0 23.5243 2.63277 23.5243 5.87672C23.5243 9.12067 20.9461 11.7534 17.7693 11.7534H12.0144V0Z" fill="#FF7262"/>
<path d="M23.5243 17.8214C23.5243 21.0654 20.9461 23.6981 17.7693 23.6981C14.5926 23.6981 12.0144 21.0654 12.0144 17.8214C12.0144 14.5775 14.5926 11.9447 17.7693 11.9447C20.9461 11.9447 23.5243 14.5775 23.5243 17.8214Z" fill="#1ABCFE"/>
</svg>
